# xmcd
# 
# Track frame offsets:
#   150
#   15501
#   27183
#   40971
#   53753
#   70018
#   83166
#   91992
#   105490
#   121021
#   133293
#   144721
#   157717
#   166743
#   182005
# 
# Disc length: 2569 seconds
# 
# Revision: 0
# Processed by: cddbd v1.5.2PL0 Copyright (c) Steve Scherf et al.
# Submitted via: VOLTOCDX V1.0.24 
# 
DISCID=b30a070f
DTITLE=Johnny Cash - CB-9297
DYEAR=2010
DGENRE=Karaoke
TTITLE0=If I Were A Carpenter - Johnny Cash - June Carter Cash
TTITLE1=Kate - Johnny Cash - June Carter Cash
TTITLE2=Any Old Wind That Blows - Johnny Cash
TTITLE3=Thing Called Love, A - Johnny Cash
TTITLE4=There Ain't No Good Chain Gang - Johnny Cash - June Carter Cash
TTITLE5=Ghost Riders In The Sky - Johnny Cash - June Carter Cash
TTITLE6=Come In Stranger - Johnny Cash - June Carter Cash
TTITLE7=Give My Love To Rose - Johnny Cash - June Carter Cash
TTITLE8=Ragged Old Flag - Johnny Cash - June Carter Cash
TTITLE9=Cry, Cry - Johnny Cash
TTITLE10=Get Rhythm - Johnny Cash
TTITLE11=Thanks A Lot - Johnny Cash - June Carter Cash
TTITLE12=Wreck Of The Old '97, The - Johnny Cash - June Carter Cash
TTITLE13=Oney - Johnny Cash
TTITLE14=Smiling Bill Mccall - Johnny Cash - June Carter Cash
EXTD=
EXTT0=
EXTT1=
EXTT2=
EXTT3=
EXTT4=
EXTT5=
EXTT6=
EXTT7=
EXTT8=
EXTT9=
EXTT10=
EXTT11=
EXTT12=
EXTT13=
EXTT14=
PLAYORDER=
